<svg width="24" height="25" viewBox="0 0 24 25" fill="none" xmlns="http://www.w3.org/2000/svg">
<path d="M12 13.5C8.41015 13.5 6.5 15.7503 6.5 19.0058V19.5C6.5 20.0523 6.94772 20.5 7.5 20.5H16.5C17.0523 20.5 17.5 20.0523 17.5 19.5V19.0058C17.5 15.7503 15.5899 13.5 12 13.5Z" stroke="#1E1E42" stroke-width="2" stroke-linecap="round"/>
<path d="M8.5 8.1C8.5 6.11177 10.067 4.5 12 4.5C13.933 4.5 15.5 6.11177 15.5 8.1V9.9C15.5 11.8882 13.933 13.5 12 13.5C10.067 13.5 8.5 11.8882 8.5 9.9V8.1Z" stroke="#1E1E42" stroke-width="2" stroke-linecap="round" stroke-linejoin="round"/>
<path d="M17 19.5C16.4477 19.5 16 19.9477 16 20.5C16 21.0523 16.4477 21.5 17 21.5V19.5ZM17 15.5001V14.5001L16.8698 16.4915L17 15.5001ZM15.7073 7.17631C15.1792 7.33797 14.8821 7.89713 15.0438 8.42523C15.2055 8.95332 15.7646 9.25038 16.2927 9.08872L15.7073 7.17631ZM20 19.4327V19.5H22V19.4327H20ZM20 19.5H17V21.5H20V19.5ZM16.8698 16.4915C18.9352 16.7627 20 18.0021 20 19.4327H22C22 16.7522 19.926 14.8756 17.1302 14.5086L16.8698 16.4915ZM20 19.5V19.5V21.5C21.1046 21.5 22 20.6046 22 19.5H20ZM19 11.2V12.3H21V11.2H19ZM19 12.3C19 13.5907 18.0932 14.5001 17 14.5001V16.5001C19.3432 16.5001 21 14.5439 21 12.3H19ZM16.8889 9C18.0285 9 19 9.95823 19 11.2H21C21 8.90715 19.1858 7 16.8889 7V9ZM16.8889 7C16.4795 7 16.0826 7.06144 15.7073 7.17631L16.2927 9.08872C16.4807 9.03116 16.6805 9 16.8889 9V7Z" fill="#1E1E42"/>
<path d="M7 19.5C7.55228 19.5 8 19.9477 8 20.5C8 21.0523 7.55228 21.5 7 21.5V19.5ZM7 15.5001V14.5001L7.13018 16.4915L7 15.5001ZM8.29271 7.17631C8.82081 7.33797 9.11786 7.89713 8.9562 8.42523C8.79454 8.95332 8.23539 9.25038 7.70729 9.08872L8.29271 7.17631ZM4 19.4327V19.5H2V19.4327H4ZM4 19.5H7V21.5H4V19.5ZM7.13018 16.4915C5.06484 16.7627 4 18.0021 4 19.4327H2C2 16.7522 4.07401 14.8756 6.86982 14.5086L7.13018 16.4915ZM4 19.5V19.5V21.5C2.89543 21.5 2 20.6046 2 19.5H4ZM5 11.2V12.3H3V11.2H5ZM5 12.3C5 13.5907 5.90679 14.5001 7 14.5001V16.5001C4.65677 16.5001 3 14.5439 3 12.3H5ZM7.11111 9C5.97155 9 5 9.95823 5 11.2H3C3 8.90715 4.81424 7 7.11111 7V9ZM7.11111 7C7.52048 7 7.91744 7.06144 8.29271 7.17631L7.70729 9.08872C7.51926 9.03116 7.3195 9 7.11111 9V7Z" fill="#1E1E42"/>
</svg>
