<svg width="812" height="831" viewBox="0 0 812 831" fill="none" xmlns="http://www.w3.org/2000/svg">
<g opacity="0.14">
<path d="M811.507 298.854C811.507 321.451 809.01 343.527 804.259 364.662C797.879 393.283 787.372 420.338 773.467 445.199C769.479 452.302 765.214 459.196 760.636 465.951C736.051 502.477 703.698 533.222 665.866 555.785C633.721 575.005 597.692 588.306 559.236 594.225C544.429 596.489 529.345 597.638 513.914 597.638H268.094C260.534 597.638 253.252 596.315 246.49 593.947H246.456C245.554 593.633 244.652 593.32 243.82 592.972L243.786 592.937C226.031 585.834 212.091 571.105 205.988 552.825L205.954 552.79C203.769 546.21 202.555 539.211 202.555 531.864C202.555 495.791 231.441 466.508 267.227 466.056C267.539 466.021 267.851 466.021 268.163 466.021H513.914C523.381 466.021 532.64 465.22 541.725 463.688C546.961 462.852 552.093 461.703 557.156 460.311C592.491 450.874 623.145 429.983 645.13 401.884C653.903 390.568 661.323 378.102 667.01 364.732C675.09 345.825 679.806 325.107 680.361 303.415C680.395 301.918 680.395 300.386 680.395 298.923C680.395 275.56 675.61 253.275 666.976 233.045C644.991 181.687 598.213 143.595 541.69 134.089C532.64 132.557 523.346 131.756 513.88 131.756H267.123C223.812 131.861 182.166 138.929 143.189 151.847C90.8629 169.152 43.3216 197.042 3.09706 233.08H3.06238C11.3153 196.311 26.2955 162.084 46.6852 131.791C91.4871 65.1468 162.296 17.6882 244.479 4.03903C260.396 1.39277 276.763 0 293.442 0H513.88C616.591 0 707.166 52.2289 760.636 131.686C781.026 161.979 796.006 196.207 804.259 232.976C808.975 254.181 811.507 276.221 811.507 298.854Z" fill="url(#paint0_linear_1061_90)"/>
<path d="M808.375 597.668C800.157 634.437 785.142 668.665 764.752 698.957C720.02 765.497 649.211 812.956 567.028 826.605C551.111 829.251 534.744 830.644 518.065 830.644H297.627C194.916 830.644 104.341 778.415 50.9049 698.957C30.5152 668.665 15.4656 634.437 7.28203 597.668C2.4967 576.498 0 554.423 0 531.825C0 509.192 2.4967 487.152 7.24736 465.947C13.6625 437.36 24.1001 410.341 38.04 385.48C42.0277 378.307 46.2929 371.378 50.8702 364.623C75.421 328.098 107.843 297.352 145.641 274.789C177.786 255.569 213.849 242.233 252.305 236.349C267.043 234.086 282.196 232.937 297.592 232.937H543.344C550.903 232.937 558.22 234.225 565.016 236.627C565.918 236.941 566.82 237.254 567.721 237.672C585.475 244.74 599.381 259.469 605.518 277.749C607.772 284.365 608.986 291.433 608.986 298.815C608.986 334.818 580.101 364.135 544.28 364.588C543.968 364.623 543.69 364.623 543.378 364.623H297.627C288.126 364.623 278.832 365.424 269.782 366.956C264.581 367.791 259.414 368.941 254.386 370.333C219.05 379.839 188.327 400.73 166.412 428.83C157.604 440.146 150.287 452.611 144.531 465.912C136.451 484.819 131.735 505.536 131.181 527.264C131.146 528.761 131.146 530.293 131.146 531.755C131.146 555.119 135.931 577.368 144.566 597.564C166.481 648.887 213.294 686.979 269.747 696.52C278.798 698.052 288.126 698.853 297.627 698.853H544.384C587.66 698.748 629.341 691.68 668.317 678.762C720.644 661.561 768.15 633.636 808.375 597.668Z" fill="url(#paint1_linear_1061_90)"/>
</g>
<defs>
<linearGradient id="paint0_linear_1061_90" x1="3.06168" y1="298.829" x2="811.494" y2="298.829" gradientUnits="userSpaceOnUse">
<stop stop-color="#31D5F4"/>
<stop offset="1" stop-color="#00B4F0"/>
</linearGradient>
<linearGradient id="paint1_linear_1061_90" x1="0" y1="531.819" x2="808.386" y2="531.819" gradientUnits="userSpaceOnUse">
<stop stop-color="#8F7DF4"/>
<stop offset="1" stop-color="#8454FF"/>
</linearGradient>
</defs>
</svg>
