<svg width="214" height="215" viewBox="0 0 214 215" fill="none" xmlns="http://www.w3.org/2000/svg">
<circle cx="107.006" cy="107" r="106" fill="#8F7DF4" stroke="#1E1E42" stroke-width="2"/>
<path d="M25.3205 100.762L25.2053 102.751L11.8596 101.977L14.4185 104.698L13.1272 105.825L9.23794 101.585L9.33928 99.8359L25.3205 100.762Z" fill="white"/>
<path d="M21.8791 93.6336C19.8034 93.1299 18.8107 91.0121 18.6974 88.9348C17.7485 90.6062 16.1805 91.9792 14.1281 91.4812C11.3293 90.802 10.7553 87.7733 11.3835 85.1844C12.006 82.6188 13.9156 80.1433 16.7144 80.8224C18.7668 81.3205 19.5255 83.2827 19.6029 85.2031C20.6557 83.4088 22.5085 81.9814 24.5843 82.4851C27.2198 83.1246 28.1946 86.0283 27.4532 89.0837C26.7062 92.1623 24.538 94.2787 21.8791 93.6336ZM16.4956 82.8438C14.8863 82.4534 13.5622 83.7373 13.1094 85.6032C12.651 87.4924 13.2451 89.2171 14.8544 89.6076C16.7436 90.066 17.9675 87.7698 18.3571 86.8765C18.4259 85.8807 18.3848 83.3023 16.4956 82.8438ZM23.899 84.3933C21.8699 83.9009 20.3617 86.3504 20.0131 87.2783C19.8977 88.2629 20.1098 91.1545 22.1389 91.6468C23.8182 92.0543 25.2576 90.6007 25.7273 88.6649C26.1913 86.7524 25.5783 84.8008 23.899 84.3933Z" fill="white"/>
<path d="M28.4021 64.665L26.4192 68.8245L31.0337 71.0243L30.445 72.2591L25.8305 70.0594L23.8476 74.2189L22.7211 73.6819L24.704 69.5223L20.2195 67.3845L20.8081 66.1497L25.2926 68.2875L27.2755 64.1279L28.4021 64.665Z" fill="white"/>
<path d="M48.0933 50.6393L46.7106 52.0732L41.8388 47.3753L30.806 45.505L32.422 43.8292L41.2261 45.4175L39.319 36.6769L40.935 35.0011L43.2215 45.9414L48.0933 50.6393Z" fill="white"/>
<path d="M54.4436 37.0883C52.6191 34.2668 53.1619 30.6862 55.9431 28.8878C58.8855 26.9852 62.1044 28.1619 63.994 31.0842L64.2416 31.4671L56.3615 36.5626C57.6683 38.3184 59.9486 39.016 62.0446 37.6607C63.153 36.944 63.9949 35.7708 64.2525 34.4896L65.6166 35.008C65.2748 36.6009 64.3036 37.972 62.7115 39.0015C59.8295 40.865 56.4114 40.1315 54.4436 37.0883ZM56.7309 30.1504C54.6551 31.4927 54.761 33.9107 55.6447 35.4542L62.0335 31.3231C61.075 29.885 58.9478 28.7169 56.7309 30.1504Z" fill="white"/>
<path d="M81.2964 29.695L79.6159 30.34L79.1429 29.1076C78.6251 30.4375 77.5905 31.4258 76.1341 31.9848C74.2968 32.69 71.8744 32.2058 70.9715 29.8531C70.0427 27.4333 71.5535 25.5424 73.3908 24.8372C74.8696 24.2696 76.2825 24.2672 77.5434 24.9401L76.7952 22.9907C76.2362 21.5343 74.7529 21.1524 73.1845 21.7544C71.8849 22.2532 71.0124 23.1279 70.4445 24.5284L69.2131 23.6643C69.9138 22.0071 71.0794 20.8914 72.8495 20.212C75.135 19.3348 77.4351 19.6346 78.4413 22.2561L81.2964 29.695ZM78.7387 28.0545L77.9562 26.0156C76.9624 25.3687 75.6477 25.3592 74.4601 25.8149C72.8917 26.4169 72.1722 27.8242 72.7053 29.2134C73.2299 30.5802 74.7062 31.1447 76.2747 30.5427C77.4622 30.0869 78.4329 29.2002 78.7387 28.0545Z" fill="white"/>
<path d="M90.4692 27.3447L88.6998 27.6752L86.5715 16.2802L88.3409 15.9498L88.6846 17.7899C89.3799 16.4149 90.5381 15.2952 92.0951 15.0044L92.4344 16.821C92.2133 16.8135 91.9965 16.8295 91.7134 16.8824C90.6282 17.0851 89.3094 18.2592 88.9622 19.2762L90.4692 27.3447Z" fill="white"/>
<path d="M99.7251 24.2864L100.636 22.9726C101.421 23.8456 102.899 24.5852 104.483 24.5547C106.259 24.5204 107.203 23.71 107.182 22.5822C107.157 21.3105 105.733 20.9299 104.166 20.576C102.19 20.1581 99.9482 19.6733 99.9018 17.2737C99.8671 15.4741 101.397 13.9082 104.157 13.855C106.124 13.817 107.53 14.534 108.484 15.4518L107.669 16.7157C106.956 15.8893 105.673 15.29 104.185 15.3187C102.601 15.3493 101.631 16.0881 101.651 17.1199C101.673 18.2477 103 18.5822 104.518 18.9129C106.543 19.33 108.881 19.8609 108.931 22.4284C108.969 24.3721 107.439 25.9619 104.439 26.0198C102.544 26.0564 100.925 25.5115 99.7251 24.2864Z" fill="white"/>
<path d="M132.286 29.9911C127.946 28.6726 125.455 24.4043 126.886 19.6967C128.316 14.9892 132.76 12.8276 137.1 14.1462C139.879 14.9903 141.364 16.8713 142.058 18.9633L140.178 19.3705C139.696 17.8195 138.398 16.3966 136.584 15.8455C133.3 14.8479 129.97 16.6454 128.86 20.2967C127.758 23.9249 129.519 27.2942 132.803 28.2918C134.617 28.8429 136.48 28.4057 137.751 27.3619L139.109 28.7528C137.293 30.1074 135.065 30.8352 132.286 29.9911Z" fill="white"/>
<path d="M143.875 34.4817L142.283 33.6416L147.693 23.3898L149.285 24.2299L148.412 25.8855C149.811 25.2399 151.414 25.0819 152.815 25.8212L151.952 27.4556C151.783 27.3123 151.604 27.1902 151.349 27.0558C150.373 26.5405 148.61 26.6413 147.706 27.2227L143.875 34.4817Z" fill="white"/>
<path d="M160.173 45.2671L158.753 44.161L159.564 43.1196C158.158 43.3628 156.777 42.9872 155.546 42.0286C153.994 40.8193 153.157 38.4949 154.706 36.5068C156.299 34.4619 158.698 34.7793 160.251 35.9886C161.5 36.9619 162.232 38.1706 162.307 39.5978L163.59 37.9505C164.549 36.7198 164.11 35.2524 162.784 34.22C161.686 33.3647 160.486 33.0692 158.994 33.306L159.098 31.8052C160.879 31.5497 162.436 31.9717 163.932 33.1368C165.863 34.641 166.794 36.7656 165.069 38.9809L160.173 45.2671ZM160.257 42.2297L161.599 40.5067C161.64 39.3216 160.969 38.1908 159.966 37.4092C158.64 36.3769 157.064 36.4873 156.149 37.6613C155.25 38.8163 155.528 40.372 156.854 41.4043C157.857 42.186 159.118 42.5594 160.257 42.2297Z" fill="white"/>
<path d="M176.181 47.1776L174.605 45.4321L167.178 52.1398L165.971 50.8039L173.399 44.0962L172.112 42.6713L173.287 41.6096L174.574 43.0346L175.233 42.4394C177.014 40.8308 178.93 40.9114 180.282 42.4076C180.732 42.9063 181.061 43.4498 181.153 43.9813L179.85 44.5437C179.782 44.2173 179.628 43.9036 179.354 43.6008C178.566 42.7281 177.526 42.7941 176.44 43.7753L175.781 44.3704L177.357 46.116L176.181 47.1776Z" fill="white"/>
<path d="M174.707 62.1593C173.761 60.7421 174.099 59.4772 175.536 58.5177L181.844 54.3067L180.778 52.7099L182.095 51.8304L183.161 53.4272L185.796 51.6682L186.796 53.1652L184.161 54.9243L185.467 56.8804L184.149 57.7599L182.843 55.8038L176.855 59.8015C176.137 60.2813 175.831 60.9471 176.271 61.6058C176.551 62.025 176.997 62.3043 177.35 62.3573L176.525 63.5427C175.912 63.4033 175.293 63.0376 174.707 62.1593Z" fill="white"/>
<path d="M192.089 64.5108C191.805 63.9279 192.061 63.1902 192.665 62.8965C193.27 62.6029 193.986 62.8686 194.269 63.4515C194.563 64.0559 194.329 64.7832 193.724 65.0768C193.12 65.3705 192.382 65.1152 192.089 64.5108ZM180.312 71.2464L179.526 69.6274L189.952 64.5616L190.739 66.1806L180.312 71.2464Z" fill="white"/>
<path d="M186.69 88.7214L186.2 86.9896L193.497 84.9228C195.459 84.3669 195.802 83.1973 195.376 81.6964C194.991 80.334 193.793 79.2763 192.709 78.8848L184.558 81.1936L184.067 79.4617L195.221 76.3027L195.711 78.0345L194.095 78.4924C195.241 79.0159 196.642 80.2652 197.113 81.9278C197.774 84.2601 196.943 85.8175 194.518 86.5042L186.69 88.7214Z" fill="white"/>
<path d="M185.409 97.9037L186.8 98.7418C185.701 99.7626 185.332 100.936 185.422 102.59C185.525 104.507 186.557 106.254 189.097 106.117L190.751 106.027C189.531 105.252 188.568 103.886 188.48 102.256C188.317 99.2367 190.454 96.982 194.193 96.7798C197.907 96.5789 200.322 98.5635 200.486 101.607C200.571 103.165 199.879 104.596 198.659 105.599L200.409 105.505L200.506 107.302L189.266 107.91C185.432 108.117 184.089 105.498 183.936 102.67C183.829 100.705 184.14 99.3423 185.409 97.9037ZM192.165 105.951L197.221 105.677C198.194 105 198.982 103.563 198.904 102.125C198.778 99.8006 196.858 98.5104 194.294 98.6491C191.753 98.7864 189.959 100.277 190.085 102.602C190.163 104.04 191.125 105.382 192.165 105.951Z" fill="white"/>
<path d="M183.091 138.005L183.773 135.955L197.138 136.686L186.002 129.26L186.684 127.211L203.313 127.941L202.615 130.036L188.832 129.191L200.333 136.89L199.81 138.461L185.99 137.73L197.536 145.292L196.839 147.387L183.091 138.005Z" fill="white"/>
<path d="M183.123 151.374C185.911 153.25 186.821 156.755 184.972 159.503C183.016 162.41 179.593 162.595 176.706 160.652L176.328 160.397L181.567 152.612C179.675 151.512 177.304 151.768 175.91 153.839C175.173 154.934 174.861 156.344 175.128 157.623L173.67 157.683C173.358 156.085 173.711 154.442 174.77 152.869C176.686 150.022 180.117 149.351 183.123 151.374ZM183.751 158.652C185.131 156.601 184.082 154.42 182.662 153.349L178.415 159.661C179.862 160.606 182.277 160.842 183.751 158.652Z" fill="white"/>
<path d="M166.48 163.899L167.784 162.659L178.812 174.262L177.507 175.502L173.258 171.031C173.456 172.598 172.976 174.114 171.828 175.205C169.636 177.288 166.434 177.02 163.888 174.341C161.293 171.61 161.254 168.468 163.446 166.385C164.629 165.261 166.234 164.894 167.67 165.151L166.48 163.899ZM172.266 169.988L168.646 166.178C167.499 165.877 165.91 166.261 164.884 167.237C163.179 168.857 163.476 171.19 165.245 173.052C167.014 174.913 169.346 175.346 171.051 173.725C172.077 172.75 172.508 171.148 172.266 169.988Z" fill="white"/>
<path d="M136.966 183.903L146.467 179.46L153.248 193.961L143.747 198.404L142.995 196.795L150.691 193.196L148.505 188.522L140.961 192.05L140.209 190.441L147.753 186.913L145.415 181.913L137.719 185.512L136.966 183.903Z" fill="white"/>
<path d="M121.315 188.269L123.349 187.8L127.808 191.649L130.131 186.236L132.143 185.773L129.153 192.57L134.513 197.122L132.479 197.591L128.353 194.011L126.211 199.036L124.177 199.506L127.002 193.066L121.315 188.269Z" fill="white"/>
<path d="M115.18 195.02C115.286 198.45 113.041 201.161 109.587 201.267C107.476 201.332 106.202 200.507 105.278 199.383L106.444 198.243C107.244 199.275 108.242 199.7 109.441 199.663C111.912 199.587 113.389 197.644 113.309 195.077C113.23 192.511 111.636 190.639 109.165 190.715C107.965 190.752 106.997 191.262 106.261 192.318L105.027 191.251C105.879 190.072 107.1 189.17 109.211 189.105C112.665 188.998 115.074 191.565 115.18 195.02Z" fill="white"/>
<path d="M98.1928 195.022C97.6265 198.334 94.8037 200.602 91.5391 200.044C88.0852 199.454 86.5119 196.409 87.0984 192.979L87.1752 192.529L96.425 194.111C96.6511 191.934 95.4445 189.877 92.9842 189.456C91.6831 189.234 90.2694 189.528 89.2127 190.297L88.5592 188.992C89.8889 188.051 91.5317 187.698 93.4006 188.018C96.7835 188.596 98.8035 191.45 98.1928 195.022ZM91.8136 198.582C94.2502 198.998 95.8086 197.146 96.2025 195.412L88.7034 194.13C88.4358 195.837 89.2113 198.137 91.8136 198.582Z" fill="white"/>
<path d="M80.2527 184.979L81.9496 185.58L76.6083 200.67L74.9115 200.07L80.2527 184.979Z" fill="white"/>
<path d="M71.1288 181.203L72.739 182.008L65.5835 196.328L63.9733 195.523L71.1288 181.203Z" fill="white"/>
<path d="M59.9851 181.859C57.9987 184.569 54.4597 185.337 51.7885 183.379C48.9624 181.308 48.9153 177.881 50.9726 175.074L51.2422 174.706L58.8107 180.254C59.9857 178.407 59.8252 176.028 57.8121 174.553C56.7475 173.772 55.3514 173.403 54.0625 173.619L54.0609 172.16C55.6711 171.912 57.2982 172.331 58.8273 173.452C61.5953 175.481 62.1276 178.936 59.9851 181.859ZM52.6875 182.193C54.6813 183.655 56.9029 182.694 58.0303 181.319L51.8942 176.821C50.892 178.229 50.5583 180.632 52.6875 182.193Z" fill="white"/>
<path d="M43.2802 159.162L44.472 160.511L38.7884 165.532C37.2596 166.883 37.4573 168.085 38.4902 169.254C39.4277 170.315 40.9651 170.751 42.1114 170.634L48.4605 165.025L49.6523 166.374L40.965 174.049L39.7733 172.7L41.0323 171.588C39.7726 171.612 37.9684 171.092 36.8243 169.797C35.2194 167.981 35.2945 166.217 37.183 164.549L43.2802 159.162Z" fill="white"/>
<path d="M33.2386 155.376C30.2521 157.067 26.8078 156.341 25.1051 153.334C24.0645 151.496 24.2015 149.984 24.7665 148.644L26.3184 149.144C25.7779 150.333 25.8658 151.414 26.4571 152.458C27.675 154.609 30.0816 155.012 32.3163 153.747C34.551 152.482 35.4651 150.199 34.2472 148.048C33.656 147.004 32.7535 146.384 31.4771 146.224L31.8466 144.636C33.2865 144.841 34.6533 145.501 35.6938 147.339C37.3965 150.347 36.2461 153.673 33.2386 155.376Z" fill="white"/>
<path d="M25.3777 140.348C22.1818 141.385 18.8614 139.94 17.839 136.789C16.7573 133.457 18.7226 130.649 22.0326 129.575L22.4664 129.434L25.3631 138.36C27.396 137.548 28.6568 135.524 27.8863 133.15C27.4788 131.895 26.5617 130.779 25.3899 130.201L26.2418 129.016C27.6931 129.756 28.7682 131.047 29.3535 132.851C30.4129 136.115 28.8247 139.229 25.3777 140.348ZM19.2617 136.353C20.0248 138.704 22.3887 139.224 24.1076 138.767L21.7591 131.531C20.1229 132.087 18.4468 133.842 19.2617 136.353Z" fill="white"/>
<path d="M25.4155 123.039C24.7058 123.16 24.0132 122.67 23.8919 121.96C23.7705 121.251 24.2608 120.558 24.9705 120.437C25.6802 120.315 26.3728 120.806 26.4941 121.515C26.6155 122.225 26.1252 122.918 25.4155 123.039Z" fill="white"/>
</svg>
