<svg width="18" height="18" viewBox="0 0 18 18" fill="none" xmlns="http://www.w3.org/2000/svg">
<path d="M8.43623 2.49506C8.71638 1.92743 9.52581 1.92743 9.80596 2.49506L11.3002 5.52266C11.4114 5.74807 11.6264 5.9043 11.8752 5.94045L15.2164 6.42595C15.8428 6.51697 16.0929 7.28679 15.6396 7.72863L13.2219 10.0853C13.0419 10.2607 12.9598 10.5135 13.0023 10.7613L13.573 14.0889C13.68 14.7128 13.0252 15.1886 12.4649 14.894L9.47649 13.3229C9.25399 13.206 8.98819 13.206 8.7657 13.3229L5.77728 14.894C5.21699 15.1886 4.56215 14.7128 4.66915 14.0889L5.23989 10.7613C5.28238 10.5135 5.20024 10.2607 5.02024 10.0853L2.60257 7.72863C2.14928 7.28679 2.39941 6.51697 3.02583 6.42595L6.36698 5.94045C6.61574 5.9043 6.83078 5.74807 6.94202 5.52266L8.43623 2.49506Z" fill="#FABE04"/>
</svg>
