<svg width="24" height="25" viewBox="0 0 24 25" fill="none" xmlns="http://www.w3.org/2000/svg">
<path d="M3 10H7V19.5H3V10Z" stroke="#1E1E42" stroke-width="2" stroke-linecap="round" stroke-linejoin="round"/>
<path d="M15.9064 4.30881L16.9038 4.38005V4.38005L15.9064 4.30881ZM14.7128 3.25698L14.9089 4.23756L14.7128 3.25698ZM20.227 17.7582L21.2186 17.8876L21.2196 17.8794L20.227 17.7582ZM21.1715 10.0174L20.1798 9.88802L20.1788 9.89626L21.1715 10.0174ZM18.9752 7.77007L18.8687 6.77576L18.8591 6.77678L18.8496 6.77799L18.9752 7.77007ZM6.99988 19.4996H5.99988V20.4996H6.99988V19.4996ZM6.99988 9.9996L6.29277 9.2925L5.99988 9.58539V9.9996H6.99988ZM13.4999 3.4996L13.3037 2.51903C13.1101 2.55776 12.9324 2.65291 12.7928 2.7925L13.4999 3.4996ZM15.6723 7.5856L16.6698 7.65685L15.6723 7.5856ZM16.2243 8.11838L16.3308 9.11269L16.3404 9.11167L16.3499 9.11046L16.2243 8.11838ZM14.9089 4.23756L14.6748 7.51436L16.6698 7.65685L16.9038 4.38005L14.9089 4.23756ZM14.9089 4.23756V4.23756L16.9038 4.38005C16.9979 3.06263 15.8118 2.01737 14.5167 2.2764L14.9089 4.23756ZM7.70698 10.7067L14.207 4.20671L12.7928 2.7925L6.29277 9.2925L7.70698 10.7067ZM18.2438 18.4996H6.99988V20.4996H18.2438V18.4996ZM19.2354 17.6289C19.1704 18.127 18.7461 18.4996 18.2438 18.4996V20.4996C19.7507 20.4996 21.0237 19.3818 21.2186 17.8876L19.2354 17.6289ZM20.1788 9.89626L19.2344 17.6371L21.2196 17.8794L22.1641 10.1385L20.1788 9.89626ZM19.0817 8.76438C19.7251 8.69545 20.2636 9.24641 20.1799 9.88803L22.1631 10.1467C22.4141 8.22186 20.7988 6.56896 18.8687 6.77576L19.0817 8.76438ZM16.3499 9.11046L19.1008 8.76215L18.8496 6.77799L16.0987 7.1263L16.3499 9.11046ZM14.6748 7.51436C14.6082 8.44673 15.4014 9.21227 16.3308 9.11269L16.1178 7.12407C16.4276 7.09088 16.692 7.34606 16.6698 7.65685L14.6748 7.51436ZM7.99988 19.4996V9.9996H5.99988V19.4996H7.99988ZM13.4999 3.4996C13.696 4.48018 13.696 4.48017 13.696 4.48017C13.6961 4.48017 13.6961 4.48017 13.6961 4.48017C13.6961 4.48016 13.6961 4.48015 13.6962 4.48014C13.6963 4.48012 13.6965 4.48009 13.6967 4.48005C13.6971 4.47996 13.6977 4.47984 13.6986 4.47967C13.7002 4.47934 13.7027 4.47884 13.706 4.47819C13.7124 4.47689 13.722 4.47498 13.7343 4.47252C13.7589 4.4676 13.7944 4.46049 13.8381 4.45175C13.9255 4.43428 14.0455 4.41028 14.176 4.38417C14.437 4.33194 14.7403 4.27129 14.9089 4.23756L14.5167 2.2764C14.348 2.31014 14.0447 2.3708 13.7837 2.42302C13.6531 2.44913 13.5332 2.47313 13.4458 2.49061C13.4021 2.49935 13.3666 2.50645 13.342 2.51137C13.3297 2.51383 13.3201 2.51575 13.3136 2.51705C13.3104 2.5177 13.3079 2.51819 13.3062 2.51853C13.3054 2.51869 13.3048 2.51882 13.3044 2.5189C13.3041 2.51895 13.304 2.51898 13.3039 2.519C13.3038 2.51901 13.3038 2.51902 13.3038 2.51902C13.3037 2.51903 13.3037 2.51903 13.3037 2.51903C13.3037 2.51903 13.3037 2.51903 13.4999 3.4996Z" fill="#1E1E42"/>
</svg>
