<svg width="21" height="20" viewBox="0 0 21 20" fill="none" xmlns="http://www.w3.org/2000/svg">
<g clip-path="url(#clip0_626_1534)">
<path d="M10.5 1.8023C13.1717 1.8023 13.4853 1.81421 14.5413 1.86185C15.5179 1.90552 16.0459 2.06828 16.3992 2.20722C16.8676 2.38984 17.2011 2.60421 17.5504 2.95355C17.8998 3.3029 18.1181 3.63636 18.2968 4.1048C18.4317 4.45812 18.5985 4.9861 18.6421 5.96268C18.6898 7.01866 18.7017 7.33227 18.7017 10.004C18.7017 12.6757 18.6898 12.9893 18.6421 14.0453C18.5985 15.0218 18.4357 15.5498 18.2968 15.9031C18.1141 16.3716 17.8998 16.705 17.5504 17.0544C17.2011 17.4037 16.8676 17.6221 16.3992 17.8007C16.0459 17.9357 15.5179 18.1024 14.5413 18.1461C13.4853 18.1937 13.1717 18.2056 10.5 18.2056C7.82831 18.2056 7.51469 18.1937 6.45872 18.1461C5.48214 18.1024 4.95415 17.9397 4.60084 17.8007C4.1324 17.6181 3.79893 17.4037 3.44959 17.0544C3.10024 16.705 2.8819 16.3716 2.70326 15.9031C2.56828 15.5498 2.40155 15.0218 2.35788 14.0453C2.31024 12.9893 2.29833 12.6757 2.29833 10.004C2.29833 7.33227 2.31024 7.01866 2.35788 5.96268C2.40155 4.9861 2.56431 4.45812 2.70326 4.1048C2.88587 3.63636 3.10024 3.3029 3.44959 2.95355C3.79893 2.60421 4.1324 2.38587 4.60084 2.20722C4.95415 2.07225 5.48214 1.90552 6.45872 1.86185C7.51469 1.81024 7.83228 1.8023 10.5 1.8023ZM10.5 0C7.78464 0 7.44324 0.0119095 6.37535 0.0595474C5.31144 0.107185 4.58496 0.277888 3.94978 0.524017C3.29079 0.778086 2.73502 1.12346 2.17924 1.67924C1.62346 2.23501 1.28206 2.79476 1.02402 3.44978C0.777888 4.08495 0.607185 4.81143 0.559547 5.87932C0.511909 6.94323 0.5 7.28463 0.5 10C0.5 12.7154 0.511909 13.0568 0.559547 14.1247C0.607185 15.1886 0.777888 15.915 1.02402 16.5542C1.27809 17.2132 1.62346 17.769 2.17924 18.3247C2.73502 18.8805 3.29476 19.2219 3.94978 19.4799C4.58496 19.7261 5.31144 19.8968 6.37932 19.9444C7.44721 19.9921 7.78464 20.004 10.504 20.004C13.2233 20.004 13.5607 19.9921 14.6286 19.9444C15.6925 19.8968 16.419 19.7261 17.0582 19.4799C17.7172 19.2259 18.2729 18.8805 18.8287 18.3247C19.3845 17.769 19.7259 17.2092 19.9839 16.5542C20.2301 15.919 20.4008 15.1925 20.4484 14.1247C20.496 13.0568 20.508 12.7193 20.508 10C20.508 7.28067 20.496 6.94323 20.4484 5.87535C20.4008 4.81143 20.2301 4.08495 19.9839 3.44581C19.7299 2.78682 19.3845 2.23104 18.8287 1.67527C18.2729 1.11949 17.7132 0.778086 17.0582 0.520048C16.423 0.273918 15.6965 0.103216 14.6286 0.0555776C13.5568 0.0119095 13.2154 0 10.5 0Z" fill="#1E1E42"/>
<path d="M10.5 1.8023C13.1717 1.8023 13.4853 1.81421 14.5413 1.86185C15.5179 1.90552 16.0459 2.06828 16.3992 2.20722C16.8676 2.38984 17.2011 2.60421 17.5504 2.95355C17.8998 3.3029 18.1181 3.63636 18.2968 4.1048C18.4317 4.45812 18.5985 4.9861 18.6421 5.96268C18.6898 7.01866 18.7017 7.33227 18.7017 10.004C18.7017 12.6757 18.6898 12.9893 18.6421 14.0453C18.5985 15.0218 18.4357 15.5498 18.2968 15.9031C18.1141 16.3716 17.8998 16.705 17.5504 17.0544C17.2011 17.4037 16.8676 17.6221 16.3992 17.8007C16.0459 17.9357 15.5179 18.1024 14.5413 18.1461C13.4853 18.1937 13.1717 18.2056 10.5 18.2056C7.82831 18.2056 7.51469 18.1937 6.45872 18.1461C5.48214 18.1024 4.95415 17.9397 4.60084 17.8007C4.1324 17.6181 3.79893 17.4037 3.44959 17.0544C3.10024 16.705 2.8819 16.3716 2.70326 15.9031C2.56828 15.5498 2.40155 15.0218 2.35788 14.0453C2.31024 12.9893 2.29833 12.6757 2.29833 10.004C2.29833 7.33227 2.31024 7.01866 2.35788 5.96268C2.40155 4.9861 2.56431 4.45812 2.70326 4.1048C2.88587 3.63636 3.10024 3.3029 3.44959 2.95355C3.79893 2.60421 4.1324 2.38587 4.60084 2.20722C4.95415 2.07225 5.48214 1.90552 6.45872 1.86185C7.51469 1.81024 7.83228 1.8023 10.5 1.8023Z" fill="#1E1E42"/>
<path d="M10.5 4.86719C7.66554 4.86719 5.36304 7.16572 5.36304 10.0041C5.36304 12.8426 7.66157 15.1411 10.5 15.1411C13.3384 15.1411 15.637 12.8426 15.637 10.0041C15.637 7.16572 13.3384 4.86719 10.5 4.86719ZM10.5 13.3348C8.65799 13.3348 7.16534 11.8422 7.16534 10.0002C7.16534 8.15817 8.65799 6.66552 10.5 6.66552C12.342 6.66552 13.8347 8.15817 13.8347 10.0002C13.8347 11.8422 12.342 13.3348 10.5 13.3348Z" fill="white"/>
<path d="M15.8394 5.85969C16.5015 5.85969 17.0383 5.32293 17.0383 4.6608C17.0383 3.99867 16.5015 3.46191 15.8394 3.46191C15.1773 3.46191 14.6405 3.99867 14.6405 4.6608C14.6405 5.32293 15.1773 5.85969 15.8394 5.85969Z" fill="white"/>
</g>
<defs>
<clipPath id="clip0_626_1534">
<rect width="20" height="20" fill="white" transform="translate(0.5)"/>
</clipPath>
</defs>
</svg>
