<svg width="57" height="56" viewBox="0 0 57 56" fill="none" xmlns="http://www.w3.org/2000/svg">
<path d="M10.4182 43.3373L12.2916 41.9464C12.8341 42.677 12.9023 43.6564 12.4663 44.4552L10.4182 43.3373ZM16.581 48.0479L16.0034 45.7872C16.4759 45.6665 16.9744 45.6968 17.4288 45.8741L16.581 48.0479ZM8.62499 48.9836L8.53559 51.3152H8.53559L8.62499 48.9836ZM7.84338 47.5174L5.94375 46.1625L5.94375 46.1624L7.84338 47.5174ZM9.99935 35C9.99935 37.6058 10.8509 40.0059 12.2916 41.9464L8.54476 44.7283C6.52711 42.0107 5.33268 38.6415 5.33268 35H9.99935ZM21.666 23.3333C15.2227 23.3333 9.99935 28.5567 9.99935 35H5.33268C5.33268 25.9793 12.6454 18.6667 21.666 18.6667V23.3333ZM33.3327 35C33.3327 28.5567 28.1093 23.3333 21.666 23.3333V18.6667C30.6867 18.6667 37.9993 25.9793 37.9993 35H33.3327ZM21.666 46.6667C28.1093 46.6667 33.3327 41.4433 33.3327 35H37.9993C37.9993 44.0207 30.6867 51.3333 21.666 51.3333V46.6667ZM17.4288 45.8741C18.7392 46.3851 20.1669 46.6667 21.666 46.6667V51.3333C19.5775 51.3333 17.5753 50.9402 15.7332 50.2218L17.4288 45.8741ZM17.1586 50.3086C14.4266 51.0067 11.4744 51.4279 8.53559 51.3152L8.7144 46.6519C11.1045 46.7436 13.5985 46.4016 16.0034 45.7872L17.1586 50.3086ZM8.53559 51.3152C6.00273 51.2181 4.35345 48.3921 5.94375 46.1625L9.74301 48.8723C10.0475 48.4454 10.0819 47.8655 9.83921 47.3959C9.59313 46.9198 9.12963 46.6679 8.7144 46.6519L8.53559 51.3152ZM5.94375 46.1624C6.73732 45.0499 7.5751 43.676 8.37004 42.2195L12.4663 44.4552C11.6108 46.0227 10.6751 47.5656 9.74301 48.8723L5.94375 46.1624Z" fill="white"/>
<path d="M12.332 25.6667C12.332 15.3574 20.6894 7 30.9987 7C41.308 7 49.6654 15.3574 49.6654 25.6667C49.6654 29.6357 48.4266 33.3154 46.3147 36.3403C47.3151 38.5134 48.4047 40.6259 49.4628 42.3566C49.9594 43.1688 49.4988 44.27 48.5696 44.3115C45.1876 44.4628 41.7231 43.8185 38.5098 42.7606C36.2116 43.7719 33.6707 44.3333 30.9987 44.3333" stroke="white" stroke-width="4.66667" stroke-linejoin="round"/>
</svg>
