<svg width="56" height="56" viewBox="0 0 56 56" fill="none" xmlns="http://www.w3.org/2000/svg">
<path d="M21.865 45.4653L19.6013 46.0312L21.865 45.4653ZM18.8363 36.9875L17.1708 38.6216L18.8363 36.9875ZM20.3936 39.5798L18.1299 40.1457L20.3936 39.5798ZM34.1324 45.4653L31.8687 44.8994L34.1324 45.4653ZM35.6046 39.5764L33.341 39.0105L35.6046 39.5764ZM38.4974 28.0003C38.4974 30.8635 37.3545 33.455 35.4948 35.3514L38.8267 38.6189C41.5073 35.8854 43.1641 32.134 43.1641 28.0003H38.4974ZM27.9974 17.5003C33.7964 17.5003 38.4974 22.2013 38.4974 28.0003H43.1641C43.1641 19.624 36.3737 12.8337 27.9974 12.8337V17.5003ZM17.4974 28.0003C17.4974 22.2013 22.1984 17.5003 27.9974 17.5003V12.8337C19.6211 12.8337 12.8307 19.624 12.8307 28.0003H17.4974ZM20.5019 35.3534C18.6411 33.4568 17.4974 30.8644 17.4974 28.0003H12.8307C12.8307 32.1354 14.4887 35.888 17.1708 38.6216L20.5019 35.3534ZM24.1287 44.8994L22.6573 39.0139L18.1299 40.1457L19.6013 46.0312L24.1287 44.8994ZM29.6051 46.6668H26.3923V51.3335H29.6051V46.6668ZM33.341 39.0105L31.8687 44.8994L36.3961 46.0312L37.8683 40.1423L33.341 39.0105ZM19.6013 46.0312C20.3804 49.1474 23.1802 51.3335 26.3923 51.3335V46.6668C25.3216 46.6668 24.3883 45.9381 24.1287 44.8994L19.6013 46.0312ZM17.1708 38.6216C17.7091 39.1703 18.0145 39.6838 18.1299 40.1457L22.6573 39.0139C22.2753 37.486 21.4001 36.2688 20.5019 35.3534L17.1708 38.6216ZM29.6051 51.3335C32.8171 51.3335 35.617 49.1474 36.3961 46.0312L31.8687 44.8994C31.6091 45.9381 30.6758 46.6668 29.6051 46.6668V51.3335ZM35.4948 35.3514C34.5973 36.2667 33.7228 37.4833 33.341 39.0105L37.8683 40.1423C37.9837 39.6806 38.2889 39.1674 38.8267 38.6189L35.4948 35.3514Z" fill="white"/>
<path d="M28 7V8.16667" stroke="white" stroke-width="4.66667" stroke-linecap="round" stroke-linejoin="round"/>
<path d="M13.1523 13.1506L13.9773 13.9756" stroke="white" stroke-width="4.66667" stroke-linecap="round" stroke-linejoin="round"/>
<path d="M42.8477 13.1506L42.0227 13.9756" stroke="white" stroke-width="4.66667" stroke-linecap="round" stroke-linejoin="round"/>
<path d="M49 28L47.8333 28" stroke="white" stroke-width="4.66667" stroke-linecap="round" stroke-linejoin="round"/>
<path d="M8.16797 28L7.0013 28" stroke="white" stroke-width="4.66667" stroke-linecap="round" stroke-linejoin="round"/>
<path d="M21 38.5H35" stroke="white" stroke-width="4.66667" stroke-linecap="round"/>
</svg>
