<svg width="44" height="44" viewBox="0 0 44 44" fill="none" xmlns="http://www.w3.org/2000/svg">
<path d="M5.5 33C5.5 31.9874 6.32081 31.1666 7.33333 31.1666H14.6667C15.6792 31.1666 16.5 31.9874 16.5 33V38.5H7.33333C6.32081 38.5 5.5 37.6791 5.5 36.6666V33Z" stroke="white" stroke-width="3.66667" stroke-linecap="round" stroke-linejoin="round"/>
<path d="M16.5 27.5C16.5 26.4874 17.3208 25.6666 18.3333 25.6666H25.6667C26.6792 25.6666 27.5 26.4874 27.5 27.5V38.5H16.5V27.5Z" stroke="white" stroke-width="3.66667" stroke-linecap="round" stroke-linejoin="round"/>
<path d="M27.5 20.1667C27.5 19.1542 28.3208 18.3334 29.3333 18.3334H36.6667C37.6792 18.3334 38.5 19.1542 38.5 20.1667V36.6667C38.5 37.6792 37.6792 38.5 36.6667 38.5H27.5V20.1667Z" stroke="white" stroke-width="3.66667" stroke-linecap="round" stroke-linejoin="round"/>
<path d="M7.33398 16.5C19.2507 16.5 25.6673 13.75 33.0007 5.5" stroke="white" stroke-width="3.66667" stroke-linecap="round" stroke-linejoin="round"/>
<path d="M26.584 5.5H33.0007V11.9167" stroke="white" stroke-width="3.66667" stroke-linecap="round" stroke-linejoin="round"/>
</svg>
