<svg width="40" height="40" viewBox="0 0 40 40" fill="none" xmlns="http://www.w3.org/2000/svg">
<path d="M19.9997 21.6667C14.0166 21.6667 10.833 25.4172 10.833 30.8432V31.6667C10.833 32.5872 11.5792 33.3334 12.4997 33.3334H27.4997C28.4202 33.3334 29.1663 32.5872 29.1663 31.6667V30.8432C29.1663 25.4172 25.9828 21.6667 19.9997 21.6667Z" stroke="url(#paint0_linear_456_2402)" stroke-width="3.33333" stroke-linecap="round"/>
<path d="M14.167 12.6667C14.167 9.35304 16.7787 6.66675 20.0003 6.66675C23.222 6.66675 25.8337 9.35304 25.8337 12.6667V15.6667C25.8337 18.9805 23.222 21.6667 20.0003 21.6667C16.7787 21.6667 14.167 18.9805 14.167 15.6667V12.6667Z" stroke="url(#paint1_linear_456_2402)" stroke-width="3.33333" stroke-linecap="round" stroke-linejoin="round"/>
<path d="M28.3337 31.6667C27.4132 31.6667 26.667 32.4129 26.667 33.3333C26.667 34.2538 27.4132 35 28.3337 35V31.6667ZM28.3337 25.0001V23.3334L28.1167 26.6526L28.3337 25.0001ZM26.1791 11.1272C25.299 11.3966 24.8039 12.3286 25.0733 13.2087C25.3428 14.0889 26.2747 14.584 27.1548 14.3145L26.1791 11.1272ZM33.3337 31.5546V31.6667H36.667V31.5546H33.3337ZM33.3337 31.6667H28.3337V35H33.3337V31.6667ZM28.1167 26.6526C31.5589 27.1045 33.3337 29.1702 33.3337 31.5546H36.667C36.667 27.087 33.2103 23.9594 28.5506 23.3476L28.1167 26.6526ZM33.3337 31.6667V35C35.1746 35 36.667 33.5076 36.667 31.6667H33.3337ZM31.667 17.8333V19.6667H35.0003V17.8333H31.667ZM31.667 19.6667C31.667 21.8178 30.1557 23.3334 28.3337 23.3334V26.6668C32.239 26.6668 35.0003 23.4066 35.0003 19.6667H31.667ZM28.1485 14.1667C30.0478 14.1667 31.667 15.7637 31.667 17.8333H35.0003C35.0003 14.0119 31.9766 10.8333 28.1485 10.8333V14.1667ZM28.1485 10.8333C27.4662 10.8333 26.8046 10.9357 26.1791 11.1272L27.1548 14.3145C27.4682 14.2186 27.8012 14.1667 28.1485 14.1667V10.8333Z" fill="url(#paint2_linear_456_2402)"/>
<path d="M11.6663 31.6667C12.5868 31.6667 13.333 32.4129 13.333 33.3333C13.333 34.2538 12.5868 35 11.6663 35V31.6667ZM11.6663 25.0001V23.3334L11.8833 26.6526L11.6663 25.0001ZM13.8209 11.1272C14.701 11.3966 15.1961 12.3286 14.9267 13.2087C14.6572 14.0889 13.7253 14.584 12.8452 14.3145L13.8209 11.1272ZM6.66634 31.5546V31.6667H3.33301V31.5546H6.66634ZM6.66634 31.6667H11.6663V35H6.66634V31.6667ZM11.8833 26.6526C8.44107 27.1045 6.66634 29.1702 6.66634 31.5546H3.33301C3.33301 27.087 6.78968 23.9594 11.4494 23.3476L11.8833 26.6526ZM6.66634 31.6667V35C4.82539 35 3.33301 33.5076 3.33301 31.6667H6.66634ZM8.33301 17.8333V19.6667H4.99967V17.8333H8.33301ZM8.33301 19.6667C8.33301 21.8178 9.84433 23.3334 11.6663 23.3334V26.6668C7.76095 26.6668 4.99967 23.4066 4.99967 19.6667H8.33301ZM11.8515 14.1667C9.95225 14.1667 8.33301 15.7637 8.33301 17.8333H4.99967C4.99967 14.0119 8.02341 10.8333 11.8515 10.8333V14.1667ZM11.8515 10.8333C12.5338 10.8333 13.1954 10.9357 13.8209 11.1272L12.8452 14.3145C12.5318 14.2186 12.1988 14.1667 11.8515 14.1667V10.8333Z" fill="url(#paint3_linear_456_2402)"/>
<defs>
<linearGradient id="paint0_linear_456_2402" x1="10.833" y1="27.5006" x2="29.1666" y2="27.5006" gradientUnits="userSpaceOnUse">
<stop stop-color="#8F7DF4"/>
<stop offset="1" stop-color="#8454FF"/>
</linearGradient>
<linearGradient id="paint1_linear_456_2402" x1="14.167" y1="14.1675" x2="25.8338" y2="14.1675" gradientUnits="userSpaceOnUse">
<stop stop-color="#8F7DF4"/>
<stop offset="1" stop-color="#8454FF"/>
</linearGradient>
<linearGradient id="paint2_linear_456_2402" x1="26.667" y1="22.9177" x2="35.0004" y2="22.9177" gradientUnits="userSpaceOnUse">
<stop stop-color="#8F7DF4"/>
<stop offset="1" stop-color="#8454FF"/>
</linearGradient>
<linearGradient id="paint3_linear_456_2402" x1="13.333" y1="22.9177" x2="4.99956" y2="22.9177" gradientUnits="userSpaceOnUse">
<stop stop-color="#8F7DF4"/>
<stop offset="1" stop-color="#8454FF"/>
</linearGradient>
</defs>
</svg>
