<svg width="25" height="24" viewBox="0 0 25 24" fill="none" xmlns="http://www.w3.org/2000/svg">
<path d="M24.9997 8.63484C24.9997 9.28776 24.9255 9.92559 24.7843 10.5363C24.5946 11.3632 24.2823 12.1449 23.869 12.8632C23.7504 13.0685 23.6236 13.2677 23.4876 13.4628C22.7568 14.5182 21.7951 15.4065 20.6705 16.0584C19.715 16.6137 18.6441 16.9981 17.501 17.1691C17.0608 17.2345 16.6125 17.2677 16.1538 17.2677H8.84678C8.62208 17.2677 8.40562 17.2294 8.20463 17.161H8.20359C8.1768 17.152 8.15 17.1429 8.12526 17.1329L8.12423 17.1319C7.59648 16.9266 7.18212 16.5011 7.00071 15.9729L6.99968 15.9719C6.93474 15.7817 6.89866 15.5795 6.89866 15.3673C6.89866 14.325 7.75728 13.4789 8.82102 13.4658C8.83029 13.4648 8.83957 13.4648 8.84885 13.4648H16.1538C16.4352 13.4648 16.7104 13.4417 16.9804 13.3974C17.1361 13.3733 17.2886 13.3401 17.4391 13.2998C18.4895 13.0272 19.4007 12.4236 20.0541 11.6117C20.3149 11.2848 20.5355 10.9246 20.7045 10.5383C20.9447 9.99199 21.0849 9.3934 21.1014 8.76663C21.1024 8.72337 21.1024 8.67911 21.1024 8.63685C21.1024 7.9618 20.9602 7.31794 20.7035 6.73343C20.05 5.24952 18.6595 4.14891 16.9794 3.87426C16.7104 3.82999 16.4341 3.80686 16.1528 3.80686H8.81792C7.53051 3.80987 6.29258 4.0141 5.13402 4.38734C3.57861 4.88734 2.16545 5.69318 0.969781 6.73443H0.96875C1.21407 5.67205 1.65935 4.68312 2.26544 3.80786C3.59717 1.8823 5.70196 0.511068 8.14484 0.116701C8.61796 0.0402416 9.10447 0 9.60026 0H16.1528C19.2058 0 21.8982 1.50906 23.4876 3.80484C24.0937 4.6801 24.5389 5.66904 24.7843 6.73141C24.9244 7.34409 24.9997 7.98092 24.9997 8.63484Z" fill="url(#paint0_linear_153_757)"/>
<path d="M24.0289 17.2682C23.7846 18.3306 23.3383 19.3196 22.7322 20.1948C21.4025 22.1174 19.2977 23.4886 16.8548 23.883C16.3817 23.9594 15.8952 23.9997 15.3994 23.9997H8.84694C5.79385 23.9997 3.10153 22.4906 1.51314 20.1948C0.907061 19.3196 0.459715 18.3306 0.216458 17.2682C0.0742141 16.6566 0 16.0187 0 15.3658C0 14.7119 0.0742141 14.0751 0.215427 13.4624C0.406116 12.6364 0.716372 11.8558 1.13073 11.1374C1.24927 10.9302 1.37605 10.73 1.51211 10.5348C2.24188 9.47949 3.20564 8.59115 4.32916 7.93924C5.28466 7.38391 6.35665 6.99859 7.49975 6.82857C7.93782 6.76318 8.38826 6.72998 8.84591 6.72998H16.1508C16.3755 6.72998 16.593 6.7672 16.7951 6.83662C16.8219 6.84567 16.8487 6.85473 16.8755 6.8668C17.4032 7.07103 17.8165 7.49658 17.999 8.02475C18.066 8.2159 18.1021 8.42013 18.1021 8.63341C18.1021 9.67365 17.2434 10.5207 16.1787 10.5338C16.1694 10.5348 16.1612 10.5348 16.1519 10.5348H8.84694C8.56452 10.5348 8.28827 10.558 8.01925 10.6022C7.86463 10.6264 7.71105 10.6596 7.56159 10.6998C6.51126 10.9745 5.59801 11.5781 4.94658 12.39C4.68477 12.7169 4.46728 13.0771 4.29617 13.4614C4.05601 14.0077 3.91583 14.6063 3.89933 15.234C3.8983 15.2773 3.8983 15.3216 3.8983 15.3638C3.8983 16.0389 4.04055 16.6817 4.2972 17.2652C4.94864 18.7481 6.34015 19.8487 8.01822 20.1244C8.28724 20.1687 8.56452 20.1918 8.84694 20.1918H16.1818C17.4681 20.1888 18.7071 19.9846 19.8657 19.6113C21.4211 19.1143 22.8332 18.3075 24.0289 17.2682Z" fill="url(#paint1_linear_153_757)"/>
<defs>
<linearGradient id="paint0_linear_153_757" x1="0.968729" y1="8.63413" x2="24.9993" y2="8.63413" gradientUnits="userSpaceOnUse">
<stop stop-color="#31D5F4"/>
<stop offset="1" stop-color="#00B4F0"/>
</linearGradient>
<linearGradient id="paint1_linear_153_757" x1="0" y1="15.3657" x2="24.0292" y2="15.3657" gradientUnits="userSpaceOnUse">
<stop stop-color="#8F7DF4"/>
<stop offset="1" stop-color="#8454FF"/>
</linearGradient>
</defs>
</svg>
