<svg width="57" height="56" viewBox="0 0 57 56" fill="none" xmlns="http://www.w3.org/2000/svg">
<path d="M35.0409 23.657C36.6633 22.1689 37.0344 19.7537 35.9337 17.8472L35.3068 16.7614C34.2061 14.8549 31.9289 13.9687 29.829 14.6297C28.647 15.0017 27.4 14.2817 27.1312 13.0721C26.6536 10.923 24.7475 9.39404 22.5461 9.39404H21.2924C19.091 9.39404 17.1849 10.923 16.7073 13.0721C16.4385 14.2817 15.1915 15.0017 14.0095 14.6297C11.9096 13.9687 9.63239 14.8549 8.53167 16.7615L7.90483 17.8472C6.8041 19.7537 7.17522 22.1689 8.79755 23.657C9.71072 24.4946 9.71075 25.9345 8.79757 26.7722C7.17524 28.2603 6.80413 30.6755 7.90485 32.582L8.53169 33.6677C9.63242 35.5742 11.9096 36.4604 14.0095 35.7995C15.1915 35.4275 16.4385 36.1474 16.7073 37.3571C17.1849 39.5061 19.091 41.0351 21.2924 41.0351H22.5461C24.7475 41.0351 26.6536 39.5061 27.1312 37.3571" stroke="white" stroke-width="4.69698" stroke-linecap="round" stroke-linejoin="round"/>
<circle cx="21.636" cy="25.2139" r="3.52271" fill="white"/>
<path d="M40.3133 28.6713C41.0512 28.0184 42.1459 28.0184 42.8838 28.6713L45.0942 30.6271C45.2826 30.7939 45.5004 30.9224 45.7358 31.0059L48.4975 31.9853C49.4194 32.3123 49.9668 33.2817 49.7827 34.2615L49.2314 37.1968C49.1844 37.447 49.1844 37.7041 49.2314 37.9543L49.7827 40.8895C49.9668 41.8694 49.4194 42.8388 48.4975 43.1657L45.7358 44.1452C45.5004 44.2286 45.2826 44.3572 45.0942 44.5239L42.8838 46.4797C42.1459 47.1326 41.0512 47.1326 40.3133 46.4797L38.1029 44.5239C37.9145 44.3572 37.6967 44.2286 37.4613 44.1452L34.6996 43.1657C33.7777 42.8388 33.2303 41.8694 33.4144 40.8895L33.9657 37.9543C34.0127 37.7041 34.0127 37.447 33.9657 37.1968L33.4144 34.2615C33.2303 33.2817 33.7777 32.3123 34.6996 31.9853L37.4613 31.0059C37.6967 30.9224 37.9145 30.7939 38.1029 30.6271L40.3133 28.6713Z" stroke="white" stroke-width="4.69698" stroke-linecap="round"/>
<circle cx="41.5985" cy="37.5755" r="2.34847" fill="white"/>
</svg>
