<svg width="57" height="56" viewBox="0 0 57 56" fill="none" xmlns="http://www.w3.org/2000/svg">
<path d="M45.8275 16.3447C42.0576 10.7129 35.6376 7.00488 28.3516 7.00488C16.7455 7.00488 7.33691 16.4135 7.33691 28.0195C7.33691 39.6256 16.7455 49.0342 28.3516 49.0342C39.1684 49.0342 48.0764 40.8617 49.238 30.3545" stroke="white" stroke-width="4.66992" stroke-linecap="round" stroke-linejoin="round"/>
<path d="M36.0582 36.1917C34.9363 33.0175 31.9092 30.7434 28.3509 30.7434C24.7926 30.7434 21.7654 33.0175 20.6436 36.1917" stroke="white" stroke-width="4.66992" stroke-linecap="round" stroke-linejoin="round"/>
<path d="M22.9014 25.2954C22.9014 22.2864 25.3406 19.8472 28.3496 19.8472C31.3586 19.8472 33.7979 22.2864 33.7979 25.2954C33.7979 28.3044 31.3586 30.7437 28.3496 30.7437C25.3406 30.7437 22.9014 28.3044 22.9014 25.2954Z" stroke="white" stroke-width="4.66992" stroke-linecap="round" stroke-linejoin="round"/>
<path d="M49.3721 19.8632L49.3721 12.8594L42.3682 19.8632L49.3721 19.8632Z" stroke="white" stroke-width="4.66992" stroke-linecap="round" stroke-linejoin="round"/>
</svg>
