<svg width="60" height="60" viewBox="0 0 60 60" fill="none" xmlns="http://www.w3.org/2000/svg">
<path d="M9.23101 15.73C12.7385 11.9275 18.046 10 25.0035 10H27.5035V17.0475L25.4935 17.45C22.0685 18.135 19.686 19.4825 18.411 21.46C17.7457 22.5253 17.3684 23.7451 17.316 25H25.0035C25.6666 25 26.3024 25.2634 26.7713 25.7322C27.2401 26.2011 27.5035 26.837 27.5035 27.5V45C27.5035 47.7575 25.261 50 22.5035 50H7.50351C6.84047 50 6.20459 49.7366 5.73575 49.2678C5.2669 48.7989 5.00351 48.163 5.00351 47.5V35L5.01101 27.7025C4.98851 27.425 4.51351 20.85 9.23101 15.73ZM50.0035 50H35.0035C34.3405 50 33.7046 49.7366 33.2357 49.2678C32.7669 48.7989 32.5035 48.163 32.5035 47.5V35L32.511 27.7025C32.4885 27.425 32.0135 20.85 36.731 15.73C40.2385 11.9275 45.546 10 52.5035 10H55.0035V17.0475L52.9935 17.45C49.5685 18.135 47.186 19.4825 45.911 21.46C45.2457 22.5253 44.8684 23.7451 44.816 25H52.5035C53.1666 25 53.8024 25.2634 54.2713 25.7322C54.7401 26.2011 55.0035 26.837 55.0035 27.5V45C55.0035 47.7575 52.761 50 50.0035 50Z" fill="#8F7DF4"/>
</svg>
