<svg width="26" height="26" viewBox="0 0 26 26" fill="none" xmlns="http://www.w3.org/2000/svg">
<path d="M11.9368 1.71352C12.466 0.641312 13.9949 0.641312 14.5241 1.71352L17.3465 7.43231C17.5566 7.85808 17.9628 8.15319 18.4327 8.22147L24.7437 9.13852C25.927 9.31045 26.3995 10.7646 25.5432 11.5991L20.9765 16.0506C20.6365 16.382 20.4814 16.8595 20.5616 17.3275L21.6397 23.6131C21.8418 24.7915 20.6049 25.6902 19.5466 25.1338L13.9018 22.1662C13.4815 21.9452 12.9794 21.9452 12.5592 22.1662L6.91438 25.1338C5.85605 25.6902 4.61912 24.7915 4.82125 23.6131L5.89931 17.3275C5.97957 16.8595 5.82442 16.382 5.48442 16.0506L0.917693 11.5991C0.0614867 10.7646 0.533952 9.31046 1.7172 9.13852L8.02826 8.22147C8.49813 8.15319 8.90431 7.85808 9.11445 7.43231L11.9368 1.71352Z" fill="#FFBA31"/>
</svg>
