<svg width="40" height="40" viewBox="0 0 40 40" fill="none" xmlns="http://www.w3.org/2000/svg">
<path d="M5 15.8333H11.6667V31.6666H5V15.8333Z" stroke="url(#paint0_linear_456_2423)" stroke-width="3.33333" stroke-linecap="round" stroke-linejoin="round"/>
<path d="M26.5111 6.34835L28.1736 6.46709V6.46709L26.5111 6.34835ZM24.5218 4.5953L24.8487 6.2296L24.5218 4.5953ZM33.7122 28.7641L35.3649 28.9797L35.3666 28.9659L33.7122 28.7641ZM35.2863 15.8626L33.6336 15.647L33.6319 15.6608L35.2863 15.8626ZM31.6259 12.1171L31.4483 10.4599L31.4324 10.4616L31.4165 10.4637L31.6259 12.1171ZM11.667 31.6663H10.0003V33.333H11.667V31.6663ZM11.667 15.833L10.4885 14.6545L10.0003 15.1427V15.833H11.667ZM22.5003 4.99967L22.1734 3.36539C21.8508 3.42993 21.5545 3.58851 21.3218 3.82116L22.5003 4.99967ZM26.121 11.8097L27.7835 11.9284V11.9284L26.121 11.8097ZM27.041 12.6976L27.2186 14.3548L27.2345 14.3531L27.2504 14.3511L27.041 12.6976ZM24.8487 6.2296L24.4586 11.6909L27.7835 11.9284L28.1736 6.46709L24.8487 6.2296ZM24.8487 6.2296V6.2296L28.1736 6.46709C28.3304 4.27139 26.3535 2.52929 24.195 2.961L24.8487 6.2296ZM12.8455 17.0115L23.6788 6.17819L21.3218 3.82116L10.4885 14.6545L12.8455 17.0115ZM30.4069 29.9996H11.667V33.333H30.4069V29.9996ZM32.0595 28.5485C31.9513 29.3786 31.244 29.9996 30.4069 29.9996V33.333C32.9183 33.333 35.04 31.47 35.3649 28.9796L32.0595 28.5485ZM33.6319 15.6608L32.0578 28.5622L35.3666 28.9659L36.9407 16.0645L33.6319 15.6608ZM31.8034 13.7743C32.8757 13.6594 33.7731 14.5777 33.6336 15.6471L36.939 16.0782C37.3574 12.8701 34.6652 10.1153 31.4483 10.4599L31.8034 13.7743ZM27.2504 14.3511L31.8352 13.7706L31.4165 10.4637L26.8317 11.0442L27.2504 14.3511ZM24.4586 11.6909C24.3476 13.2449 25.6695 14.5208 27.2186 14.3548L26.8635 11.0405C27.3798 10.9851 27.8205 11.4104 27.7835 11.9284L24.4586 11.6909ZM13.3337 31.6663V15.833H10.0003V31.6663H13.3337ZM22.5003 4.99967C22.8273 6.63396 22.8273 6.63396 22.8273 6.63396C22.8273 6.63396 22.8273 6.63395 22.8273 6.63395C22.8274 6.63394 22.8274 6.63393 22.8275 6.63391C22.8277 6.63387 22.828 6.63382 22.8283 6.63375C22.829 6.63361 22.8301 6.6334 22.8315 6.63312C22.8342 6.63256 22.8384 6.63174 22.8438 6.63066C22.8546 6.62849 22.8706 6.6253 22.8911 6.6212C22.9321 6.613 22.9913 6.60115 23.0641 6.58659C23.2096 6.55747 23.4096 6.51746 23.6272 6.47395C24.0623 6.38691 24.5676 6.28582 24.8487 6.2296L24.195 2.961C23.9138 3.01723 23.4084 3.11833 22.9733 3.20537C22.7558 3.24889 22.5558 3.28889 22.4102 3.31802C22.3374 3.33258 22.2782 3.34442 22.2372 3.35262C22.2167 3.35673 22.2007 3.35992 22.1899 3.36208C22.1845 3.36317 22.1804 3.36399 22.1776 3.36455C22.1762 3.36483 22.1752 3.36504 22.1745 3.36518C22.1741 3.36525 22.1738 3.3653 22.1737 3.36533C22.1736 3.36535 22.1735 3.36537 22.1735 3.36537C22.1734 3.36538 22.1734 3.36538 22.1734 3.36538C22.1734 3.36539 22.1734 3.36539 22.5003 4.99967Z" fill="url(#paint1_linear_456_2423)"/>
<defs>
<linearGradient id="paint0_linear_456_2423" x1="5" y1="23.7507" x2="11.6668" y2="23.7507" gradientUnits="userSpaceOnUse">
<stop stop-color="#8F7DF4"/>
<stop offset="1" stop-color="#8454FF"/>
</linearGradient>
<linearGradient id="paint1_linear_456_2423" x1="11.667" y1="18.1156" x2="35.3153" y2="18.1156" gradientUnits="userSpaceOnUse">
<stop stop-color="#8F7DF4"/>
<stop offset="1" stop-color="#8454FF"/>
</linearGradient>
</defs>
</svg>
